<svg xmlns="http://www.w3.org/2000/svg" width="512" height="512" viewBox="0 0 512 512" role="img" aria-label="Melancholic chat icon">
  <defs>
    <linearGradient id="g" x1="0" y1="0" x2="1" y2="1">
      <stop offset="0%" stop-color="#8ad8ff"/>
      <stop offset="45%" stop-color="#8c7dff"/>
      <stop offset="100%" stop-color="#f0c7ff"/>
    </linearGradient>
    <filter id="b" x="-20%" y="-20%" width="140%" height="140%">
      <feGaussianBlur stdDeviation="10"/>
    </filter>
  </defs>
  <rect width="512" height="512" rx="120" fill="#090d18"/>
  <circle cx="256" cy="256" r="160" fill="url(#g)" opacity=".18" filter="url(#b)"/>
  <path d="M138 156 h236 a38 38 0 0 1 38 38 v118 a38 38 0 0 1-38 38 H260 l-58 56 v-56 h-64 a38 38 0 0 1-38-38 V194 a38 38 0 0 1 38-38 Z" fill="none" stroke="url(#g)" stroke-width="18" stroke-linejoin="round"/>
  <circle cx="206" cy="252" r="18" fill="#d9ebff"/>
  <circle cx="256" cy="252" r="18" fill="#d9ebff"/>
  <circle cx="306" cy="252" r="18" fill="#d9ebff"/>
  <path d="M182 154 C198 132, 229 118, 256 118 C283 118, 314 132, 330 154" fill="none" stroke="#d9ebff" stroke-opacity=".55" stroke-width="8" stroke-linecap="round"/>
  <path d="M176 366 C205 390, 240 402, 256 402 C275 402, 315 389, 344 366" fill="none" stroke="#d9ebff" stroke-opacity=".18" stroke-width="8" stroke-linecap="round"/>
</svg>
